# xmcd
#
# Track frame offsets:
#	150
#	15561
#	31128
#	46823
#	60598
#	78784
#	96017
#	113459
#	129811
#	146731
#	164504
#	180758
#
# Disc length: 2614 seconds
#
# Revision: 1
# Processed by: cddbd v1.5.1PL0 Copyright (c) Steve Scherf et al.
# Submitted via: audiograbber 1.83.01
#
DISCID=800a340c
DTITLE=PETRÚCIO AMORIM - PRA FICAR COM VOCÊ
DYEAR=1900
DGENRE=FORRÓ
TTITLE0=PRA FICAR COM VOCÊ
TTITLE1=CAVALHEIRO DO MEU SONHO
TTITLE2=COMO POSSO TE ESQUECER
TTITLE3=PIRILAMPO
TTITLE4=É SEMPRE ASSIM
TTITLE5=SE NÃO EU CHORO
TTITLE6=SAUDADE IMPRUDENTE
TTITLE7=FEITO MALUCO
TTITLE8=MEU EX-AMOR
TTITLE9=SONHO SERTANEJO
TTITLE10=MEU JEITO
TTITLE11=CAMINHOS
EXTD=
EXTT0=
EXTT1=
EXTT2=
EXTT3=
EXTT4=
EXTT5=
EXTT6=
EXTT7=
EXTT8=
EXTT9=
EXTT10=
EXTT11=
PLAYORDER=
